<svg xmlns="http://www.w3.org/2000/svg" viewBox="0 0 87.28 90"><defs><style>.cls-1{fill:#1d76ad;}</style></defs><title>property_social</title><g id="Layer_2" data-name="Layer 2"><g id="Layer_1-2" data-name="Layer 1"><path class="cls-1" d="M25.61,26.2H16a1,1,0,0,0,0,2h9.63a1,1,0,1,0,0-2Z"/><path class="cls-1" d="M20.46,75.35a4.37,4.37,0,1,0,4.37,4.37A4.37,4.37,0,0,0,20.46,75.35Zm0,6.72a2.35,2.35,0,1,1,2.35-2.35A2.35,2.35,0,0,1,20.46,82.07Z"/><path class="cls-1" d="M78,5.1C72.9,1.76,65.76,0,57.39,0S41.89,1.76,36.75,5.1a19.46,19.46,0,0,0-9,13.79h-21A6.76,6.76,0,0,0,0,25.65V83.24A6.76,6.76,0,0,0,6.76,90H33.9a6.76,6.76,0,0,0,6.76-6.76V46.16a11.47,11.47,0,0,0,3.74-2.85,47.82,47.82,0,0,0,13,1.63c18.72,0,29.89-8.4,29.89-22.47A19.77,19.77,0,0,0,78,5.1ZM37.63,83.24A3.72,3.72,0,0,1,33.9,87H6.76a3.76,3.76,0,0,1-2.09-.64A3.88,3.88,0,0,1,3.51,85,3.67,3.67,0,0,1,3,83.24V25.65a3.67,3.67,0,0,1,.08-.75,4,4,0,0,1,.21-.7A3.72,3.72,0,0,1,4.12,23a4.7,4.7,0,0,1,.55-.45,3.76,3.76,0,0,1,2.09-.64H27.52c0,.19,0,.36,0,.55a20,20,0,0,0,6.16,15.09,8.93,8.93,0,0,1-3,4.81,3,3,0,0,0,1.66,5.4s.31,0,.83,0a19.7,19.7,0,0,0,4.51-.56ZM57.39,41.91a45.11,45.11,0,0,1-11.85-1.45c-.83-.22-1.64-.47-2.42-.75a6.12,6.12,0,0,1-.51.91l-.19.27c-.13.18-.27.36-.42.53s-.16.18-.24.27a6.14,6.14,0,0,1-.45.43l-.26.23-.39.29-.13.1-.24.16a9,9,0,0,1-.79.46l0,0c-.26.13-.51.24-.77.35l-.28.1-.56.2-.31.1-.53.15-.29.07-.57.12-.22,0-.74.11H35.1l-.61.06-.21,0-.4,0H32.5A10.89,10.89,0,0,0,34.3,43a11.88,11.88,0,0,0,.73-1,12.1,12.1,0,0,0,1.11-2.18,11.76,11.76,0,0,0,.78-3.41,18.69,18.69,0,0,1-1.42-1.23,15.77,15.77,0,0,1-3.26-4.55A16.37,16.37,0,0,1,31,26.82a17.06,17.06,0,0,1-.33-2.1,20.43,20.43,0,0,1-.11-2.25,17,17,0,0,1,3.89-11.36q.33-.4.69-.78A19.16,19.16,0,0,1,36.67,8.9a21.25,21.25,0,0,1,3.64-2.36,21.75,21.75,0,0,1,2.07-1,33.22,33.22,0,0,1,7-1.93,48.7,48.7,0,0,1,8-.63,50.38,50.38,0,0,1,6.72.43,41.34,41.34,0,0,1,4.93,1q1.17.33,2.28.72a24.78,24.78,0,0,1,4.13,1.9A19.64,19.64,0,0,1,78.12,8.9c.28.23.55.47.81.71a15.86,15.86,0,0,1,2.24,2.54,15.06,15.06,0,0,1,.91,1.43,17.78,17.78,0,0,1,2.17,8.89,17,17,0,0,1-4.59,12.27C74.84,39.75,66.66,41.91,57.39,41.91Z"/></g></g></svg>