<?xml version="1.0" encoding="UTF-8"?>
<svg width="235px" height="17px" viewBox="0 0 235 17" version="1.1" xmlns="http://www.w3.org/2000/svg" xmlns:xlink="http://www.w3.org/1999/xlink">
    <!-- Generator: Sketch 49 (51002) - http://www.bohemiancoding.com/sketch -->
    <title>propertypartners_mobile</title>
    <desc>Created with Sketch.</desc>
    <defs>
        <polygon id="path-1" points="0.433285507 0.09588 15.445358 0.09588 15.445358 16.297356 0.433285507 16.297356"></polygon>
        <polygon id="path-3" points="0.25884058 0.09588 12.4529565 0.09588 12.4529565 16.31966 0.25884058 16.31966"></polygon>
    </defs>
    <g id="Symbols" stroke="none" stroke-width="1" fill="none" fill-rule="evenodd">
        <g id="mobile-nav" transform="translate(-43.000000, -64.000000)">
            <g id="propertypartners_mobile" transform="translate(43.000000, 64.000000)">
                <path d="M1.57783768,9.47852 L6.69470725,9.47852 C7.15993913,9.47852 7.58430145,9.3772 7.9677942,9.17456 C8.3506058,8.97192 8.67824348,8.70196 8.94798261,8.36468 C9.21908406,8.0274 9.42888116,7.63708 9.57941739,7.1944 C9.72995362,6.7524 9.80488116,6.29136 9.80488116,5.8106 C9.80488116,5.31556 9.71837391,4.84704 9.54535942,4.40436 C9.37234493,3.96168 9.14006957,3.57544 8.84717101,3.24496 C8.5535913,2.91584 8.20756232,2.65676 7.80976522,2.46908 C7.41128696,2.28208 6.99441739,2.18756 6.55847536,2.18756 L1.57783768,2.18756 L1.57783768,9.47852 Z M0.000272463768,16.76948 L0.000272463768,0.79288 L6.6265913,0.79288 C7.31796812,0.79288 7.95212754,0.93908 8.53111304,1.23148 C9.11009855,1.52388 9.60938841,1.90672 10.0303449,2.37932 C10.4506203,2.85124 10.7816638,3.38776 11.022113,3.9882 C11.2625623,4.58796 11.3831275,5.19588 11.3831275,5.8106 C11.3831275,6.47088 11.2700551,7.10464 11.0445913,7.71188 C10.8191275,8.3198 10.5037507,8.85632 10.0977797,9.32144 C9.6918087,9.78656 9.20750435,10.16124 8.64418551,10.44616 C8.08086667,10.73108 7.45283768,10.87388 6.76146087,10.87388 L1.57783768,10.87388 L1.57783768,16.76948 L0.000272463768,16.76948 Z" id="Fill-1" fill="#00C88B"></path>
                <path d="M15.598142,9.47852 L20.8274029,9.47852 C21.2926348,9.47852 21.7176783,9.3772 22.101171,9.17456 C22.4839826,8.97192 22.8109391,8.69856 23.0813594,8.35312 C23.3517797,8.00836 23.5615768,7.61872 23.712113,7.18352 C23.8626493,6.74832 23.9375768,6.29136 23.9375768,5.8106 C23.9375768,5.33052 23.8510696,4.86948 23.6787362,4.4268 C23.5057217,3.98412 23.2734464,3.59788 22.9798667,3.26808 C22.6869681,2.93828 22.3409391,2.6758 21.9424609,2.47996 C21.5446638,2.28548 21.1277942,2.18756 20.6925333,2.18756 L15.598142,2.18756 L15.598142,9.47852 Z M14.0205768,16.76948 L14.0205768,0.79288 L20.7817652,0.79288 C21.473142,0.79288 22.1086638,0.93908 22.6869681,1.23148 C23.2652725,1.52388 23.7645623,1.90672 24.1855188,2.37932 C24.6064754,2.85124 24.9334319,3.38776 25.1663884,3.9882 C25.3993449,4.58796 25.5158232,5.19588 25.5158232,5.8106 C25.5158232,6.3954 25.4293159,6.95504 25.2569826,7.4868 C25.0839681,8.01924 24.8428377,8.5 24.5349536,8.92704 C24.2270696,9.35476 23.8551565,9.71516 23.4192145,10.00756 C22.9832725,10.29996 22.4955623,10.49852 21.9540406,10.60392 L25.8768377,16.76948 L24.096287,16.76948 L20.3315188,10.87388 L15.598142,10.87388 L15.598142,16.76948 L14.0205768,16.76948 Z" id="Fill-3" fill="#00C88B"></path>
                <g id="Group-7" transform="translate(27.246377, 0.584392)">
                    <mask id="mask-2" fill="white">
                        <use xlink:href="#path-1"></use>
                    </mask>
                    <g id="Clip-6"></g>
                    <path d="M2.01085072,8.196516 C2.01085072,9.066916 2.15321304,9.903316 2.4393,10.705716 C2.7247058,11.508116 3.13067681,12.220756 3.65653188,12.842956 C4.18238696,13.465836 4.80632899,13.960876 5.52699565,14.328756 C6.24834348,14.695956 7.05211159,14.879556 7.93898116,14.879556 C8.84015507,14.879556 9.65958986,14.685076 10.3959232,14.294756 C11.1322565,13.905116 11.7561986,13.394436 12.2670681,12.764756 C12.7779377,12.134396 13.172329,11.422436 13.450242,10.626836 C13.7281551,9.831916 13.8671116,9.021356 13.8671116,8.196516 C13.8671116,7.326796 13.7206623,6.490396 13.4277638,5.687996 C13.1348652,4.884916 12.7248072,4.176356 12.1989522,3.560956 C11.6730971,2.946236 11.0498362,2.455276 10.3284884,2.087396 C9.60645942,1.719516 8.81018406,1.535916 7.93898116,1.535916 C7.03712609,1.535916 6.21837246,1.726996 5.48203913,2.109836 C4.7457058,2.491996 4.12244493,2.998596 3.61157536,3.628276 C3.1007058,4.258636 2.70631449,4.971276 2.42772029,5.766196 C2.14980725,6.561796 2.01085072,7.371676 2.01085072,8.196516 M7.93898116,16.297356 C6.82664783,16.297356 5.80899565,16.068876 4.88466232,15.611236 C3.96032899,15.153596 3.16745942,14.545676 2.50673478,13.788156 C1.84532899,13.030636 1.33445942,12.164316 0.974126087,11.189196 C0.613111594,10.214076 0.433285507,9.216516 0.433285507,8.196516 C0.433285507,7.131636 0.624691304,6.111636 1.0075029,5.136516 C1.39099565,4.161396 1.92025652,3.298476 2.59664783,2.548436 C3.27372029,1.798396 4.06931449,1.202036 4.98615507,0.759356 C5.90299565,0.317356 6.89476377,0.095676 7.96145942,0.095676 C9.07311159,0.095676 10.0914449,0.332316 11.0157783,0.804236 C11.9401116,1.276836 12.7288942,1.895636 13.3821261,2.660636 C14.0360391,3.425636 14.5428217,4.292636 14.9045174,5.260276 C15.2648507,6.227236 15.445358,7.213916 15.445358,8.218956 C15.445358,9.284516 15.253271,10.304516 14.8704594,11.279636 C14.4869667,12.254756 13.9611116,13.112916 13.292213,13.856156 C12.6233145,14.598716 11.8311261,15.190996 10.9142855,15.633676 C9.99812609,16.076356 9.00635797,16.297356 7.93898116,16.297356" id="Fill-5" fill="#00C88B" mask="url(#mask-2)"></path>
                </g>
                <path d="M47.2448087,9.47852 L52.3616783,9.47852 C52.8269101,9.47852 53.2512725,9.3772 53.6347652,9.17456 C54.0175768,8.97192 54.3452145,8.70196 54.6149536,8.36468 C54.8860551,8.0274 55.0958522,7.63708 55.2463884,7.1944 C55.3969246,6.7524 55.4718522,6.29136 55.4718522,5.8106 C55.4718522,5.31556 55.3853449,4.84704 55.2123304,4.40436 C55.0393159,3.96168 54.8070406,3.57544 54.514142,3.24496 C54.2205623,2.91584 53.8745333,2.65676 53.4767362,2.46908 C53.078258,2.28208 52.6613884,2.18756 52.2254464,2.18756 L47.2448087,2.18756 L47.2448087,9.47852 Z M45.6672435,16.76948 L45.6672435,0.79288 L52.2935623,0.79288 C52.9849391,0.79288 53.6190986,0.93908 54.1980841,1.23148 C54.7770696,1.52388 55.2763594,1.90672 55.6973159,2.37932 C56.1175913,2.85124 56.4486348,3.38776 56.6890841,3.9882 C56.9295333,4.58796 57.0500986,5.19588 57.0500986,5.8106 C57.0500986,6.47088 56.9370261,7.10464 56.7115623,7.71188 C56.4860986,8.3198 56.1707217,8.85632 55.7647507,9.32144 C55.3587797,9.78656 54.8744754,10.16124 54.3111565,10.44616 C53.7478377,10.73108 53.1198087,10.87388 52.4284319,10.87388 L47.2448087,10.87388 L47.2448087,16.76948 L45.6672435,16.76948 Z" id="Fill-8" fill="#00C88B"></path>
                <polygon id="Fill-10" fill="#00C88B" points="70.4388319 15.374052 70.4388319 16.769412 59.6874116 16.769412 59.6874116 0.792812 70.2358464 0.792812 70.2358464 2.187492 61.2649768 2.187492 61.2649768 7.948452 69.0867304 7.948452 69.0867304 9.275812 61.2649768 9.275812 61.2649768 15.374052"></polygon>
                <path d="M74.992042,9.47852 L80.2213029,9.47852 C80.6865348,9.47852 81.1115783,9.3772 81.495071,9.17456 C81.8778826,8.97192 82.2048391,8.69856 82.4752594,8.35312 C82.7456797,8.00836 82.9554768,7.61872 83.106013,7.18352 C83.2565493,6.74832 83.3314768,6.29136 83.3314768,5.8106 C83.3314768,5.33052 83.2449696,4.86948 83.0726362,4.4268 C82.8996217,3.98412 82.6673464,3.59788 82.3737667,3.26808 C82.0808681,2.93828 81.7348391,2.6758 81.3363609,2.47996 C80.9385638,2.28548 80.5216942,2.18756 80.0864333,2.18756 L74.992042,2.18756 L74.992042,9.47852 Z M73.4144768,16.76948 L73.4144768,0.79288 L80.1756652,0.79288 C80.867042,0.79288 81.5025638,0.93908 82.0808681,1.23148 C82.6591725,1.52388 83.1584623,1.90672 83.5794188,2.37932 C84.0003754,2.85124 84.3273319,3.38776 84.5602884,3.9882 C84.7932449,4.58796 84.9097232,5.19588 84.9097232,5.8106 C84.9097232,6.3954 84.8232159,6.95504 84.6508826,7.4868 C84.4778681,8.01924 84.2367377,8.5 83.9288536,8.92704 C83.6209696,9.35476 83.2490565,9.71516 82.8131145,10.00756 C82.3771725,10.29996 81.8894623,10.49852 81.3479406,10.60392 L85.2707377,16.76948 L83.490187,16.76948 L79.7254188,10.87388 L74.992042,10.87388 L74.992042,16.76948 L73.4144768,16.76948 Z" id="Fill-12" fill="#00C88B"></path>
                <polygon id="Fill-14" fill="#00C88B" points="99.246358 2.187764 93.5430101 2.187764 93.5430101 16.769004 91.9654449 16.769004 91.9654449 2.187764 86.2620971 2.187764 86.2620971 0.792404 99.246358 0.792404"></polygon>
                <polygon id="Fill-16" fill="#00C88B" points="101.724893 0.792608 106.954835 9.388488 112.229052 0.792608 113.942168 0.792608 107.743617 10.828728 107.743617 16.769208 106.166052 16.769208 106.166052 10.783848 99.9892986 0.792608"></polygon>
                <path d="M122.868149,9.47852 L127.985019,9.47852 C128.450251,9.47852 128.874613,9.3772 129.258106,9.17456 C129.640917,8.97192 129.968555,8.70196 130.238294,8.36468 C130.509396,8.0274 130.719193,7.63708 130.869729,7.1944 C131.020265,6.7524 131.095193,6.29136 131.095193,5.8106 C131.095193,5.31556 131.008686,4.84704 130.835671,4.40436 C130.662657,3.96168 130.430381,3.57544 130.137483,3.24496 C129.843903,2.91584 129.497874,2.65676 129.100077,2.46908 C128.701599,2.28208 128.284729,2.18756 127.848787,2.18756 L122.868149,2.18756 L122.868149,9.47852 Z M121.290584,16.76948 L121.290584,0.79288 L127.916903,0.79288 C128.60828,0.79288 129.242439,0.93908 129.821425,1.23148 C130.40041,1.52388 130.8997,1.90672 131.320657,2.37932 C131.740932,2.85124 132.071975,3.38776 132.312425,3.9882 C132.552874,4.58796 132.673439,5.19588 132.673439,5.8106 C132.673439,6.47088 132.560367,7.10464 132.334903,7.71188 C132.109439,8.3198 131.794062,8.85632 131.388091,9.32144 C130.98212,9.78656 130.497816,10.16124 129.934497,10.44616 C129.371178,10.73108 128.743149,10.87388 128.051772,10.87388 L122.868149,10.87388 L122.868149,16.76948 L121.290584,16.76948 Z" id="Fill-18" fill="#00C88B"></path>
                <path d="M143.131961,10.536056 L139.908714,2.637856 L136.640512,10.536056 L143.131961,10.536056 Z M139.254801,0.792336 L140.585106,0.792336 L147.233903,16.769616 L145.565743,16.769616 L143.492294,11.773656 L136.301975,11.773656 L134.251004,16.769616 L132.559686,16.769616 L139.254801,0.792336 Z" id="Fill-20" fill="#00C88B"></path>
                <path d="M151.110926,9.47852 L156.340868,9.47852 C156.8061,9.47852 157.230462,9.3772 157.613955,9.17456 C157.996767,8.97192 158.324404,8.69856 158.594143,8.35312 C158.865245,8.00836 159.075042,7.61872 159.225578,7.18352 C159.376114,6.74832 159.451042,6.29136 159.451042,5.8106 C159.451042,5.33052 159.364535,4.86948 159.19152,4.4268 C159.018506,3.98412 158.78623,3.59788 158.493332,3.26808 C158.199752,2.93828 157.853723,2.6758 157.455926,2.47996 C157.057448,2.28548 156.640578,2.18756 156.205317,2.18756 L151.110926,2.18756 L151.110926,9.47852 Z M149.533361,16.76948 L149.533361,0.79288 L156.29523,0.79288 C156.986607,0.79288 157.621448,0.93908 158.199752,1.23148 C158.778738,1.52388 159.278028,1.90672 159.698984,2.37932 C160.119941,2.85124 160.446216,3.38776 160.679854,3.9882 C160.91281,4.58796 161.029288,5.19588 161.029288,5.8106 C161.029288,6.3954 160.942781,6.95504 160.769767,7.4868 C160.596752,8.01924 160.356303,8.5 160.048419,8.92704 C159.740535,9.35476 159.367941,9.71516 158.931999,10.00756 C158.496738,10.29996 158.008346,10.49852 157.467506,10.60392 L161.389622,16.76948 L159.609071,16.76948 L155.844303,10.87388 L151.110926,10.87388 L151.110926,16.76948 L149.533361,16.76948 Z" id="Fill-22" fill="#00C88B"></path>
                <polygon id="Fill-24" fill="#00C88B" points="175.36531 2.187764 169.662643 2.187764 169.662643 16.769004 168.085078 16.769004 168.085078 2.187764 162.38173 2.187764 162.38173 0.792404 175.36531 0.792404"></polygon>
                <polygon id="Fill-26" fill="#00C88B" points="179.331838 3.717764 179.331838 16.769004 177.754272 16.769004 177.754272 0.792404 178.971504 0.792404 189.564896 14.091164 189.564896 0.814844 191.143142 0.814844 191.143142 16.769004 189.767881 16.769004"></polygon>
                <polygon id="Fill-28" fill="#00C88B" points="205.907068 15.374052 205.907068 16.769412 195.155648 16.769412 195.155648 0.792812 205.704083 0.792812 205.704083 2.187492 196.733213 2.187492 196.733213 7.948452 204.554967 7.948452 204.554967 9.275812 196.733213 9.275812 196.733213 15.374052"></polygon>
                <path d="M210.460278,9.47852 L215.69022,9.47852 C216.155452,9.47852 216.579814,9.3772 216.963307,9.17456 C217.346119,8.97192 217.673757,8.69856 217.943496,8.35312 C218.214597,8.00836 218.424394,7.61872 218.57493,7.18352 C218.725467,6.74832 218.800394,6.29136 218.800394,5.8106 C218.800394,5.33052 218.713887,4.86948 218.540872,4.4268 C218.367858,3.98412 218.135583,3.59788 217.842684,3.26808 C217.549104,2.93828 217.203075,2.6758 216.805278,2.47996 C216.4068,2.28548 215.98993,2.18756 215.55467,2.18756 L210.460278,2.18756 L210.460278,9.47852 Z M208.882713,16.76948 L208.882713,0.79288 L215.644583,0.79288 C216.335959,0.79288 216.9708,0.93908 217.549104,1.23148 C218.12809,1.52388 218.62738,1.90672 219.048336,2.37932 C219.469293,2.85124 219.795568,3.38776 220.029206,3.9882 C220.262162,4.58796 220.378641,5.19588 220.378641,5.8106 C220.378641,6.3954 220.292133,6.95504 220.119119,7.4868 C219.946104,8.01924 219.705655,8.5 219.397771,8.92704 C219.089887,9.35476 218.717293,9.71516 218.281351,10.00756 C217.84609,10.29996 217.357699,10.49852 216.816858,10.60392 L220.738974,16.76948 L218.958423,16.76948 L215.193655,10.87388 L210.460278,10.87388 L210.460278,16.76948 L208.882713,16.76948 Z" id="Fill-30" fill="#00C88B"></path>
                <g id="Group-34" transform="translate(222.057971, 0.584392)">
                    <mask id="mask-4" fill="white">
                        <use xlink:href="#path-3"></use>
                    </mask>
                    <g id="Clip-33"></g>
                    <path d="M10.8978696,3.2011 C10.446942,2.6911 9.84615942,2.27834 9.09484058,1.9635 C8.34284058,1.64866 7.48662319,1.4909 6.52482609,1.4909 C5.11278261,1.4909 4.08286957,1.75746 3.43713043,2.2899 C2.79071014,2.82234 2.46784058,3.54654 2.46784058,4.46114 C2.46784058,4.94122 2.55434783,5.33494 2.72736232,5.6423 C2.89969565,5.95034 3.16602899,6.21622 3.52772464,6.4413 C3.88805797,6.66638 4.34988406,6.86154 4.91388406,7.0261 C5.4772029,7.19202 6.14201449,7.35658 6.90831884,7.52182 C7.76453623,7.70134 8.53424638,7.90398 9.21881159,8.12906 C9.90201449,8.35414 10.485087,8.63566 10.9659855,8.97294 C11.4468841,9.31022 11.8147101,9.7189 12.0701449,10.19966 C12.3255797,10.67974 12.4529565,11.2795 12.4529565,11.99894 C12.4529565,12.7347 12.309913,13.37254 12.0245072,13.91178 C11.7391014,14.45238 11.3406232,14.90254 10.8304348,15.26226 C10.3188841,15.62266 9.7106087,15.88854 9.00492754,16.06126 C8.29856522,16.2333 7.52408696,16.31966 6.68353623,16.31966 C4.20343478,16.31966 2.06186957,15.54718 0.25884058,14.00222 L1.04762319,12.71974 C1.33302899,13.01962 1.67497101,13.30454 2.07344928,13.5745 C2.47124638,13.84446 2.91468116,14.0811 3.40307246,14.28306 C3.89146377,14.4857 4.41323188,14.64346 4.96973913,14.75634 C5.52556522,14.86854 6.11204348,14.92498 6.72781159,14.92498 C8.00498551,14.92498 9.00084058,14.69582 9.71469565,14.23818 C10.4285507,13.78122 10.7854783,13.08762 10.7854783,12.1567 C10.7854783,11.66166 10.6839855,11.2455 10.481,10.90822 C10.2780145,10.57026 9.97421739,10.27786 9.56824638,10.03034 C9.16227536,9.78282 8.65889855,9.5693 8.05811594,9.3891 C7.45665217,9.2089 6.75778261,9.02938 5.96150725,8.84918 C5.12027536,8.6547 4.38394203,8.45206 3.75250725,8.24194 C3.12175362,8.03182 2.58772464,7.76866 2.15246377,7.45382 C1.71652174,7.13898 1.38956522,6.76022 1.1715942,6.31754 C0.953623188,5.87554 0.844637681,5.33154 0.844637681,4.68622 C0.844637681,3.95182 0.983594203,3.29494 1.26218841,2.71762 C1.54010145,2.13962 1.93449275,1.65954 2.44536232,1.2767 C2.95623188,0.89454 3.55769565,0.60214 4.2483913,0.3995 C4.93976812,0.19686 5.70607246,0.09554 6.54730435,0.09554 C7.61468116,0.09554 8.56489855,0.2567 9.39931884,0.5797 C10.233058,0.90202 10.9884638,1.35558 11.6641739,1.94106 L10.8978696,3.2011 Z" id="Fill-32" fill="#00C88B" mask="url(#mask-4)"></path>
                </g>
            </g>
        </g>
    </g>
</svg>