<svg xmlns="http://www.w3.org/2000/svg" viewBox="0 0 90 77.2"><defs><style>.cls-1{fill:#1d76ad;}</style></defs><title>property_calendar</title><g id="Layer_2" data-name="Layer 2"><g id="Layer_1-2" data-name="Layer 1"><path class="cls-1" d="M90,55.31c0-.43,0-.85,0-1.28l0-.39c0-.3-.05-.59-.08-.89l-.06-.43c0-.29-.09-.58-.14-.87l-.06-.37c-.08-.4-.17-.8-.27-1.19v0c-.11-.41-.23-.81-.35-1.21l-.1-.27c-.1-.31-.2-.61-.32-.9,0-.11-.08-.22-.13-.33-.11-.29-.24-.58-.36-.86,0-.09-.09-.19-.13-.28-.17-.37-.35-.73-.54-1.09h0V7.41A2.92,2.92,0,0,0,84.47,4.5H67v-3a1.52,1.52,0,1,0-3,0v3H23.46v-3a1.52,1.52,0,1,0-3,0v3H2.91A2.91,2.91,0,0,0,0,7.41V71.18H0a2.91,2.91,0,0,0,2.91,2.91h54l.81.47a21.94,21.94,0,0,0,18.95.92,21.18,21.18,0,0,0,1.92-.92l.81-.47h5.11a2.91,2.91,0,0,0,2.92-2.91h0V65.69A21.86,21.86,0,0,0,90,55.31ZM3,7.54h17.4v4.4a1.52,1.52,0,1,0,3,0V7.54H63.92v4.4a1.52,1.52,0,1,0,3,0V7.54H84.35V23H3ZM3,71.06v-46H84.35V40.64h0c-.5-.55-1-1.07-1.57-1.57a.52.52,0,0,1-.11-.1c-.24-.21-.47-.41-.72-.61l-.23-.18c-.21-.17-.41-.33-.62-.48l-.3-.22-.6-.41-.34-.22-.58-.36-.37-.21L78.32,36l-.39-.21-.59-.28-.42-.19L76.33,35l-.44-.17c-.19-.08-.39-.15-.6-.22l-.45-.15-.61-.19-.46-.13L73.14,34l-.47-.1L72,33.78l-.46-.08c-.23,0-.46-.06-.69-.09l-.44-.06-.77-.06-.38,0q-.59,0-1.17,0-.77,0-1.53.06l-.36,0c-.5.05-1,.1-1.49.18l-.11,0c-.46.07-.92.17-1.37.27l-.32.07c-.48.12-1,.25-1.42.39l-.15.05c-.43.15-.86.3-1.28.47l-.25.09c-.46.19-.91.39-1.35.61l-.14.07c-.42.21-.83.43-1.23.67l-.15.08c-.43.26-.86.53-1.27.82l-.1.07c-.42.29-.82.59-1.21.91l0,0c-.41.33-.8.67-1.18,1l-.06.05A22.37,22.37,0,0,0,51,41.71l0,0a22,22,0,0,0-1.8,2.65h0a21.94,21.94,0,0,0-1.41,2.93H37a1,1,0,1,0,0,2h10c-.1.35-.2.72-.28,1.08v0c-.09.36-.16.73-.22,1.1v0c-.06.37-.12.74-.16,1.11v0c0,.38-.08.76-.11,1.15H25.37a1,1,0,0,0,0,2H46.24a22.16,22.16,0,0,0,.66,4.86H31.55a1,1,0,0,0,0,2h16a21.86,21.86,0,0,0,3,5.65,21.18,21.18,0,0,0,2.06,2.38l.28.27Zm65.08,3.11A18.86,18.86,0,1,1,87,55.31,18.88,18.88,0,0,1,68.11,74.17Z"/><path class="cls-1" d="M73.78,42.53a1,1,0,0,0-1.29.48L67.74,53.45,58.19,49A1.45,1.45,0,0,0,57,51.6l10,4.71a1.51,1.51,0,0,0,.62.14,1.62,1.62,0,0,0,.53-.11,1,1,0,0,0,.7-.55l.06-.13,0,0a.32.32,0,0,0,0-.09l5.33-11.7A1,1,0,0,0,73.78,42.53Z"/></g></g></svg>