<svg xmlns="http://www.w3.org/2000/svg" viewBox="0 0 89.64 75.27"><defs><style>.cls-1{fill:#1d76ad;}</style></defs><title>property_business</title><g id="Layer_2" data-name="Layer 2"><g id="Layer_1-2" data-name="Layer 1"><path class="cls-1" d="M84.23,13.14l0,0c-6-7.61-13-11.48-21-11.48a30.62,30.62,0,0,0-6.89.87c-.45.09-.83.18-1.07.21l-2.78.41-3.58.52C44.82,2.35,36.94,0,28.55,0h-.37C19,0,12.21,2.78,7.54,8.28l-.09.1C3,14.18-2.67,27.74,6.26,39.47L2.69,42.4l-.06,0A8.58,8.58,0,0,0,0,47.88a5.37,5.37,0,0,0,1.2,4l.11.13.61.63a6,6,0,0,0,3.88,2,7,7,0,0,0-.23.87,5.61,5.61,0,0,0,1.22,4.72l.79.92a5.19,5.19,0,0,0,4,1.71,8.58,8.58,0,0,0,3.75-.93h0a5.29,5.29,0,0,0,.84,5.11l.74.87a5.16,5.16,0,0,0,4,1.7,7.63,7.63,0,0,0,2.84-.58A5.32,5.32,0,0,0,25,73l.42.55a2.68,2.68,0,0,0,.28.3,5.08,5.08,0,0,0,3.64,1.44,8.33,8.33,0,0,0,4.72-1.72l.16-.14,2.33-2.07a7.12,7.12,0,0,0,.86-.94c.92.87,1.51,1.43,1.65,1.55l.16.14A11.74,11.74,0,0,0,46,74.62a7.64,7.64,0,0,0,4.09-1.16,10.4,10.4,0,0,0,4.64,1.17,8.59,8.59,0,0,0,6.5-3,17.13,17.13,0,0,0,3.93.49c3.71,0,6.59-1.51,8.25-4.24a16.62,16.62,0,0,0,1.68.22h.26a6.47,6.47,0,0,0,6.28-4.25,8.7,8.7,0,0,0,.11-6.66c-1-2.39-3.12-3.65-4.8-4.67A12.08,12.08,0,0,1,74.06,50a5.75,5.75,0,0,0,2.44-1.07L78,47.82,80.42,46c5.2-3.86,8.23-8.62,9-14.15C90.84,22,84.5,13.5,84.23,13.14ZM7.62,51.38l-.14.07-.31.12-.17,0a1.54,1.54,0,0,1-.31,0l-.17,0H6.28l-.36,0-.22-.05-.36-.12-.2-.09c-.12-.06-.24-.14-.36-.21l-.16-.11a3.27,3.27,0,0,1-.47-.44l-.65-.68a1.93,1.93,0,0,1-.34-.59A3,3,0,0,1,3,47.92a5.54,5.54,0,0,1,1.56-3.2L9.14,41a3.3,3.3,0,0,1,.49-.34l.17-.07a2.39,2.39,0,0,1,.37-.15l.21,0,.36-.07h.51l.43.05.27.06.42.15.26.11a3.19,3.19,0,0,1,.42.26l.21.13a4,4,0,0,1,.56.53,3.85,3.85,0,0,1,.7,1.2,3.53,3.53,0,0,1,.16.64,3.45,3.45,0,0,1,.05.64.51.51,0,0,1,0,.13,3,3,0,0,1-1,2.11l-.61.52L8,51.1A2.21,2.21,0,0,1,7.62,51.38Zm7.52,7.17h0a5.13,5.13,0,0,1-.7.49l-.25.13a4,4,0,0,1-.56.26l-.29.12c-.2.06-.39.12-.58.16l-.29.07a5.69,5.69,0,0,1-.71.07h-.22a2.87,2.87,0,0,1-.52,0l-.18-.05a1.82,1.82,0,0,1-.39-.14l-.15-.07a2.31,2.31,0,0,1-.42-.34h0l-.79-.92a2.54,2.54,0,0,1-.58-1.56.2.2,0,0,1,0-.07,2.56,2.56,0,0,1,0-.61A3.44,3.44,0,0,1,9,54.85a4.35,4.35,0,0,1,.9-1.08L15,49.41l2.57-2.18a5.67,5.67,0,0,1,.72-.52c.08-.05.17-.08.25-.12s.34-.18.51-.25.21-.06.31-.09a4.19,4.19,0,0,1,.47-.14l.33,0c.15,0,.3,0,.44,0s.28,0,.41,0,.21,0,.31,0a2.62,2.62,0,0,1,.4.11l.28.08a3.11,3.11,0,0,1,.4.22,2.12,2.12,0,0,1,.2.12,2.57,2.57,0,0,1,.52.47,3.4,3.4,0,0,1,.46,3.44,4.93,4.93,0,0,1-.83,1.4,5.08,5.08,0,0,1-.61.62l-1.82,1.56Zm8.64,7.06h0a3.15,3.15,0,0,1-.55.38L23,66.1l-.44.2-.26.09a3.74,3.74,0,0,1-.45.12l-.27.06-.47,0h-.46a2.2,2.2,0,0,1-.37-.06l-.19,0-.34-.14-.14-.07a1.6,1.6,0,0,1-.4-.33l-.37-.43-.37-.43c-.73-.85-.39-2.37.33-3.5a4.39,4.39,0,0,1,.81-1L25,56a3.19,3.19,0,0,1,.55-.38l.19-.1c.12-.05.23-.11.35-.15h0l.05,0,.24-.07.37-.08.26,0,.35,0,.38,0a2.56,2.56,0,0,1,.27,0,2.52,2.52,0,0,1,.39.12l.24.09a2.46,2.46,0,0,1,.39.22l.19.12a3.16,3.16,0,0,1,1.27,2.88,4,4,0,0,1-.17.76,3,3,0,0,1-.33.68,3.23,3.23,0,0,1-.71.86l-2.73,2.3Zm12.1.84a4.24,4.24,0,0,1-.22,1c-.06.16-.13.32-.2.47s-.16.29-.25.43a3.19,3.19,0,0,1-.3.42,2.13,2.13,0,0,1-.33.34l-2.34,2.09h0a5.67,5.67,0,0,1-.54.37l-.19.1-.46.23-.22.09q-.27.11-.54.18l-.17,0a3.51,3.51,0,0,1-.71.08,2.78,2.78,0,0,1-.51,0l-.11,0a1.87,1.87,0,0,1-.4-.13L28.25,72a1.9,1.9,0,0,1-.45-.31h0l-.46-.58a2.68,2.68,0,0,1-.45-.78,2.16,2.16,0,0,1,0-1.62,1.81,1.81,0,0,1,.48-.65l2.2-1.86,2.2-1.86h0a3.19,3.19,0,0,1,.38-.26l.13-.06.29-.11.16,0,.29,0h.38a2,2,0,0,1,.34,0l.21,0,.33.11a1.21,1.21,0,0,1,.2.09,3.79,3.79,0,0,1,.34.2l.16.11a4.2,4.2,0,0,1,.44.41h0a1.54,1.54,0,0,1,.26.42,2.11,2.11,0,0,1,.14.49A2.78,2.78,0,0,1,35.88,66.45ZM75.32,55.07l.54.33a8.35,8.35,0,0,1,2.81,2.45,3.6,3.6,0,0,1,.29.55A4.19,4.19,0,0,1,79.31,60a6.36,6.36,0,0,1-.18,1.68l-.15.55c-.06.18-.12.36-.19.54a4.13,4.13,0,0,1-.26.56.91.91,0,0,1-.11.16,3.53,3.53,0,0,1-.21.32l-.15.16c-.08.08-.15.17-.23.24l-.18.14a2.27,2.27,0,0,1-.25.18l-.21.11-.27.14-.24.08L76.4,65l-.26,0-.31,0h-.27a2.81,2.81,0,0,1-.41,0l-.42,0-.82-.12-.64-.12-.34-.07h0L59.23,49.2a1,1,0,0,0-1.42-.09,1,1,0,0,0-.08,1.41l13.4,15.21-.3.56a5.54,5.54,0,0,1-3.57,2.58,7.73,7.73,0,0,1-1.07.19h-.25a7.37,7.37,0,0,1-.82.05c-.33,0-.65,0-1,0h0L63.22,69h0l-.86-.16h0c-.27,0-.52-.11-.75-.17h0l-.09,0L51.05,57.17a1,1,0,0,0-1.48,1.35l9.76,10.67a8,8,0,0,1-.53.61l-.09.08a5,5,0,0,1-.54.49l-.1.09a7,7,0,0,1-.6.4l-.12.07a6.27,6.27,0,0,1-.58.29l-.05,0a4.82,4.82,0,0,1-.61.2l-.13,0a4.21,4.21,0,0,1-.6.11h-.06l-.55,0h-.11a5.64,5.64,0,0,1-.93-.08h0a7.88,7.88,0,0,1-.87-.2l-.07,0c-.27-.09-.53-.18-.78-.28h0c-.25-.11-.49-.22-.7-.33l0,0-.55-.31,0,0-.18-.12L45.09,64a1,1,0,0,0-1.52,1.3l4.85,5.67v0h0a3.75,3.75,0,0,1-.64.31l-.17.07a5.11,5.11,0,0,1-.64.18,3.72,3.72,0,0,1-.66.08H45.8a4.46,4.46,0,0,1-.63,0l-.24,0a8,8,0,0,1-1.55-.45L43.17,71l-.48-.23-.18-.09c-.39-.21-.72-.42-1-.58l-.1-.07-.2-.14,0,0-.08-.06-2.38-2.24a5.29,5.29,0,0,0-1-4.65,5.88,5.88,0,0,0-4.44-2.08,2.85,2.85,0,0,0-.29,0A6.57,6.57,0,0,0,33.44,59a6.2,6.2,0,0,0-6.21-6.82,6.1,6.1,0,0,0-1.13.11,7.44,7.44,0,0,0,.66-2A6,6,0,0,0,20.68,43a7.42,7.42,0,0,0-3,.63,6.69,6.69,0,0,0-1.63-4,6.6,6.6,0,0,0-5-2.35,6.15,6.15,0,0,0-2.34.48A19.85,19.85,0,0,1,5.19,20.19c.07-.3.15-.59.23-.88s.21-.72.33-1.07a31.07,31.07,0,0,1,1.17-3L7,15a29.56,29.56,0,0,1,2.57-4.49c.15-.22.24-.33.24-.33.34-.39.68-.76,1-1.11l.34-.33c.25-.23.5-.46.76-.68l.41-.34.78-.59.41-.28c.32-.22.64-.42,1-.61l.25-.16c.42-.23.84-.45,1.27-.66l.38-.17c.31-.14.62-.28.94-.4l.49-.19.88-.31.5-.16q.5-.15,1-.27l.41-.11c.46-.11.92-.21,1.39-.3l.32,0c.37-.07.75-.13,1.12-.18L24,3.26c.32,0,.64-.08,1-.1l.53-.05,1-.06.46,0q.74,0,1.47,0c.58,0,1.15,0,1.73,0,.2,0,.39,0,.59,0l1.15.07.67.06,1.05.1.67.08,1.06.14.61.08,1.22.2.39.07,1.53.29.5.1,1,.22.59.13.44.11c-4.68.72-8.52,1.37-10,1.77a14.5,14.5,0,0,1-2.49.33c-2.49.21-7.13.6-7.73,5.1-.79,5.84,8.79,8,14.57,8.8,3.19.43,8.88.53,11.66.56Q51.82,26.55,56,31.82l12.46,16a5.13,5.13,0,0,0,.79.82c.45.6.91,1.21,1.38,1.81l.33.41a22.68,22.68,0,0,0,2.41,2.66A12.26,12.26,0,0,0,75.32,55.07ZM86.57,30.49c-.38,4.35-2.47,9-7.94,13.06l-.38.28-3.56,2.7a2.89,2.89,0,0,1-.44.27l-.15.06a2.19,2.19,0,0,1-.33.12l-.18.05-.32,0h-.41a2.21,2.21,0,0,1-.37,0l-.22,0a2.06,2.06,0,0,1-.35-.12l-.21-.09a2.46,2.46,0,0,1-.34-.22l0,0-.13-.09a3,3,0,0,1-.43-.44h0L60,32.15l-.78-1a39.75,39.75,0,0,0,8.45,1.12A12.18,12.18,0,0,0,72,31.62a.94.94,0,0,0-.67-1.75c-3.82,1.46-11.67-.51-14-1.14L49.24,18.29H43.7l-.5,0-.57,0h-.47l-.6,0-.45,0-.62,0-.42,0-.65,0-.36,0L38.4,18l-.3,0-.69-.07-.2,0-.81-.09a44.09,44.09,0,0,1-6.71-1.45c-.33-.11-.66-.21-1-.33a16.46,16.46,0,0,1-1.78-.73,8.1,8.1,0,0,1-1.41-.86,3.38,3.38,0,0,1-.9-1,1.67,1.67,0,0,1-.23-1.09,2.28,2.28,0,0,1,.34-1,2.42,2.42,0,0,1,1.11-.9,5.18,5.18,0,0,1,1-.33c.38-.08.78-.14,1.19-.19a31.49,31.49,0,0,0,4.39-.56c2.34-.66,13.18-2.25,19.36-3.15L53.21,6l1.17-.17.49-.07.77-.11h0l.5-.09.13,0,.6-.13.7-.15.12,0,.79-.16.18,0c.29,0,.59-.11.9-.15h.09q.43-.08.9-.12l.21,0,1-.08H62c.34,0,.7,0,1.06,0h.11l.91,0h.25l.7,0,.34,0,.65.08.37,0,.66.12.37.07.77.19.27.06,1.07.33.22.07.86.32L71,6.2l.74.32.41.2.73.37.41.23.81.48.33.2c.38.25.77.51,1.15.78l.16.13c.33.24.66.5,1,.76l.39.33.78.68.43.41c.25.23.5.47.75.73l.43.44c.27.28.53.57.79.86s.26.28.38.43c.39.44.77.9,1.15,1.39h0a27.54,27.54,0,0,1,3.84,7.82A22.1,22.1,0,0,1,86.54,27q.06.55.09,1.14c0,.38,0,.77,0,1.16S86.61,30.09,86.57,30.49Z"/></g></g></svg>