<svg xmlns="http://www.w3.org/2000/svg" viewBox="0 0 89.59 77.51"><defs><style>.cls-1{fill:#1d76ad;}</style></defs><title>property_love</title><g id="Layer_2" data-name="Layer 2"><g id="Layer_1-2" data-name="Layer 1"><path class="cls-1" d="M89.59,33.25C89.59,12.43,72.84,0,44.79,0S0,12.43,0,33.25C0,44.39,4.71,53.31,13.62,59c7.62,4.89,18.4,7.47,31.17,7.47a70.72,70.72,0,0,0,21-2.85,16,16,0,0,1,.22,10,3,3,0,0,0,2.86,3.89A3,3,0,0,0,70.5,77c.49-.31,11.34-7.46,9.42-21C86.34,50.37,89.59,42.71,89.59,33.25ZM76.66,54.85A19.19,19.19,0,0,1,77,61.43a18.35,18.35,0,0,1-.6,2.81c-.18.58-.38,1.15-.6,1.68s-.47,1.06-.73,1.54a18.65,18.65,0,0,1-1.67,2.64,19.63,19.63,0,0,1-4.51,4.41h0a18.76,18.76,0,0,0,.83-5.8,18,18,0,0,0-.16-2.21,19.11,19.11,0,0,0-.61-2.84,16.27,16.27,0,0,0-1.58-3.72,48.94,48.94,0,0,1-5.1,1.58,72,72,0,0,1-17.47,2c-10.81,0-20.67-1.88-28.1-6.11a32.56,32.56,0,0,1-2.83-1.82,28.1,28.1,0,0,1-3.72-3.22,24.67,24.67,0,0,1-3-3.81q-.43-.69-.84-1.41A28.41,28.41,0,0,1,3,33.25H3a30.9,30.9,0,0,1,.85-7.39,26.12,26.12,0,0,1,1-3.28,25,25,0,0,1,6.42-9.36C18.93,6.19,31.09,3,44.79,3S70.66,6.19,78.28,13.22a25,25,0,0,1,6.43,9.36,26.12,26.12,0,0,1,1,3.28,30.9,30.9,0,0,1,.85,7.39h0a31.52,31.52,0,0,1-1.06,8.32,25.44,25.44,0,0,1-1.59,4.29A25.17,25.17,0,0,1,76.66,54.85Z"/><path class="cls-1" d="M56.75,12.88c-7.21,0-10.52,3.32-11.94,5.63a10.68,10.68,0,0,0-1.39-1.8c-1.68-1.75-4.89-3.83-10.58-3.83a10.9,10.9,0,0,0-9.69,5.51c-3.09,5.21-2.8,13.06.72,19.53,6.28,11.49,19.91,18.3,20.48,18.59a1,1,0,0,0,.89,0c.57-.29,14.2-7.1,20.47-18.59,3.53-6.47,3.82-14.32.72-19.53A10.88,10.88,0,0,0,56.75,12.88ZM64,37c-5.35,9.81-16.78,16.25-19.17,17.52C42.41,53.22,31,46.78,25.63,37c-3.2-5.87-3.5-12.92-.76-17.55a8.86,8.86,0,0,1,8-4.53c9.36,0,10.92,6,11,6.27a1,1,0,0,0,1,.77h0a1,1,0,0,0,1-.77c.06-.25,1.61-6.27,11-6.27a8.83,8.83,0,0,1,8,4.53C67.46,24,67.16,31.09,64,37Z"/></g></g></svg>