<svg xmlns="http://www.w3.org/2000/svg" viewBox="0 0 90 72.06"><defs><style>.cls-1{fill:#1d76ad;}</style></defs><title>property_logo</title><g id="Layer_2" data-name="Layer 2"><g id="Layer_1-2" data-name="Layer 1"><path class="cls-1" d="M7.6,5.3A1.35,1.35,0,1,0,9,6.65,1.34,1.34,0,0,0,7.6,5.3Z"/><circle class="cls-1" cx="12.49" cy="6.65" r="1.35"/><path class="cls-1" d="M17.39,5.3a1.35,1.35,0,1,0,1.35,1.35A1.34,1.34,0,0,0,17.39,5.3Z"/><path class="cls-1" d="M51.44,35.51c-.74,0-1.11.72-1.11,2.17s.36,2,1.06,2a.86.86,0,0,0,.82-.5,4.41,4.41,0,0,0,.25-1.81C52.46,36.14,52.12,35.51,51.44,35.51Z"/><path class="cls-1" d="M41,18.26a19.1,19.1,0,1,0,19.1,19.1A19.1,19.1,0,0,0,41,18.26Zm-8.47,23H27.37V34h2.25v5.51h2.87Zm6.35-.94a3.25,3.25,0,0,1-2.5,1.05,3.33,3.33,0,0,1-2.52-1,3.87,3.87,0,0,1-1-2.74,4,4,0,0,1,.93-2.71,3.24,3.24,0,0,1,2.58-1.06,3.28,3.28,0,0,1,2.49,1,3.74,3.74,0,0,1,1,2.69A4,4,0,0,1,38.84,40.33Zm4.3-1.09a1.1,1.1,0,0,0,.86.4,1,1,0,0,0,.69-.24.86.86,0,0,0,.29-.68H43.77V37.17h3.29v4.1H46a4.13,4.13,0,0,0-.3-.77,2.37,2.37,0,0,1-2,.88,3,3,0,0,1-2.32-1,3.78,3.78,0,0,1-.91-2.67A4.3,4.3,0,0,1,41.31,35a3.13,3.13,0,0,1,2.62-1.11,3.18,3.18,0,0,1,2.1.66,3.09,3.09,0,0,1,1,1.88l-2.17.22c-.11-.76-.44-1.14-1-1.14-.73,0-1.1.7-1.1,2.1A2.77,2.77,0,0,0,43.14,39.24ZM53.9,40.33a3.23,3.23,0,0,1-2.5,1.05,3.32,3.32,0,0,1-2.51-1,3.82,3.82,0,0,1-1-2.74,4,4,0,0,1,.93-2.71,3.24,3.24,0,0,1,2.58-1.06,3.28,3.28,0,0,1,2.48,1,3.74,3.74,0,0,1,1,2.69A3.93,3.93,0,0,1,53.9,40.33Z"/><path class="cls-1" d="M36.37,35.51c-.73,0-1.1.72-1.1,2.17s.35,2,1.06,2a.84.84,0,0,0,.81-.5,4.41,4.41,0,0,0,.25-1.81C37.39,36.14,37.05,35.51,36.37,35.51Z"/><path class="cls-1" d="M84.63,24.81H81.92V4.13A4.14,4.14,0,0,0,77.79,0H4.13A4.13,4.13,0,0,0,0,4.13V61.82A4.13,4.13,0,0,0,4.13,66H62.05v.75a5.37,5.37,0,0,0,5.37,5.36H84.63A5.37,5.37,0,0,0,90,66.7V30.17A5.37,5.37,0,0,0,84.63,24.81ZM3,4.13A1.14,1.14,0,0,1,4.13,3H77.79a1.13,1.13,0,0,1,1.12,1.13v6.18H3Zm59.05,26V63H4.13A1.14,1.14,0,0,1,3,61.82V13.31H78.91v11.5H67.42A5.37,5.37,0,0,0,62.05,30.17ZM87,66.7A2.36,2.36,0,0,1,85.11,69a2.44,2.44,0,0,1-.48,0H67.42a2.44,2.44,0,0,1-.48,0,2.36,2.36,0,0,1-1.89-2.31V30.17a2.37,2.37,0,0,1,2.37-2.36H84.63A2.37,2.37,0,0,1,87,30.17Z"/><path class="cls-1" d="M79.37,30.16h-6.1a1,1,0,0,0,0,2h6.1a1,1,0,1,0,0-2Z"/><path class="cls-1" d="M76.11,61.33a3.14,3.14,0,1,0,3.13,3.13A3.14,3.14,0,0,0,76.11,61.33Zm0,4.26a1.13,1.13,0,1,1,0-2.26,1.13,1.13,0,0,1,0,2.26Z"/></g></g></svg>