<svg xmlns="http://www.w3.org/2000/svg" viewBox="0 0 90 81.3"><defs><style>.cls-1{fill:#1d76ad;}</style></defs><title>propertymanager</title><g id="Layer_2" data-name="Layer 2"><g id="Layer_1-2" data-name="Layer 1"><path class="cls-1" d="M45.51.23a1.49,1.49,0,0,0-1.6,0L0,27.6v3.59l8.61-5.37V81.3H81.18V25.87L90,31.33V27.75Zm32.62,78H11.66v-54L44.76,3.65,78.13,24.3Z"/><path class="cls-1" d="M44.55,69.86a1,1,0,0,0,.9,0C46,69.59,59,63.08,65,52.08c3.37-6.19,3.65-13.71.68-18.71a10.46,10.46,0,0,0-9.3-5.3c-6.83,0-10,3.11-11.41,5.33a10.14,10.14,0,0,0-1.28-1.65c-1.62-1.68-4.69-3.68-10.15-3.68a10.46,10.46,0,0,0-9.3,5.3c-3,5-2.69,12.52.68,18.71C31,63.08,44,69.59,44.55,69.86ZM26,34.4a8.41,8.41,0,0,1,7.56-4.29c8.89,0,10.37,5.7,10.43,5.94a1,1,0,0,0,2,0c0-.06,1.46-5.94,10.43-5.94A8.39,8.39,0,0,1,64,34.41c2.61,4.4,2.32,11.11-.73,16.7C58.17,60.43,47.34,66.56,45,67.81c-2.34-1.25-13.17-7.38-18.25-16.7C23.7,45.52,23.41,38.81,26,34.4Z"/></g></g></svg>