<svg xmlns="http://www.w3.org/2000/svg" viewBox="0 0 90 59.19"><defs><style>.cls-1{fill:#1d76ad;}</style></defs><title>property_price</title><g id="Layer_2" data-name="Layer 2"><g id="Layer_1-2" data-name="Layer 1"><path class="cls-1" d="M28.31,43.83a6,6,0,0,0-1.45-1.92h0a6.2,6.2,0,0,0-.95-.69l-.35-.16a6.14,6.14,0,0,0-.69-.32c-.14-.05-.29-.08-.43-.12a5.23,5.23,0,0,0-.66-.15l-.47,0c-.15,0-.3,0-.45,0h-.44a6.39,6.39,0,0,0-1,.16l-.17,0a6.18,6.18,0,0,0-1,.35l-.13.07a5.38,5.38,0,0,0-.91.55l-.08.06a6.24,6.24,0,0,0-.85.78,6.75,6.75,0,0,0-.71,1A6,6,0,0,0,17.4,49a6.23,6.23,0,0,0,.62,1,5.41,5.41,0,0,0,.83.9h0a6.13,6.13,0,0,0,.95.68,3.78,3.78,0,0,0,.35.17,6.07,6.07,0,0,0,.69.31c.14.05.29.08.43.12a5.23,5.23,0,0,0,.66.15,3.89,3.89,0,0,0,.47,0,3.42,3.42,0,0,0,.45,0h.44a5.37,5.37,0,0,0,1-.15l.17,0a7.34,7.34,0,0,0,1-.34l.13-.07a7.1,7.1,0,0,0,.91-.55l.08-.07a6.24,6.24,0,0,0,.85-.78,6,6,0,0,0,1.2-2.07,6.24,6.24,0,0,0,.31-2.3,7.44,7.44,0,0,0-.18-1.15A6.2,6.2,0,0,0,28.31,43.83Zm-3.22,4.58a3,3,0,0,1-2.24,1,3,3,0,0,1-3-2.8,3,3,0,1,1,5.21,1.8Z"/><path class="cls-1" d="M56.46,37.59a1,1,0,0,0,1,1h0l21.85-.2a1,1,0,0,0,1-1,1,1,0,0,0-1-1h0l-21.86.2A1,1,0,0,0,56.46,37.59Z"/><path class="cls-1" d="M77.09,42.43h0l-17.26.15a1,1,0,0,0,0,2h0l17.26-.15a1,1,0,0,0,0-2Z"/><path class="cls-1" d="M18,16.06a6.27,6.27,0,0,0-.71-.92,6,6,0,0,0-4.35-1.91h-.16a7.93,7.93,0,0,0-1,.09l-.09,0a7.56,7.56,0,0,0-1,.27h0a6.13,6.13,0,0,0-.89.44l-.09,0a5.88,5.88,0,0,0-.76.55l-.12.1a6.75,6.75,0,0,0-.64.67l-.1.12a6.61,6.61,0,0,0-.52.78.83.83,0,0,1-.07.13,5.52,5.52,0,0,0-.38.9l0,.09a5.22,5.22,0,0,0-.23,1,5.56,5.56,0,0,0,0,1.22A6.18,6.18,0,0,0,7,20.77a1.82,1.82,0,0,0,.07.25,5.74,5.74,0,0,0,.55,1.27l.24.38a5.82,5.82,0,0,0,.57.72,6,6,0,0,0,2.9,1.72,5.7,5.7,0,0,0,.74.15c.24,0,.48,0,.71,0H13a5.36,5.36,0,0,0,1-.09l.08,0a5.26,5.26,0,0,0,1-.27h0a4.87,4.87,0,0,0,.89-.43l.1-.05a6,6,0,0,0,.76-.56l.11-.09a6.86,6.86,0,0,0,.65-.67l.09-.12a5.57,5.57,0,0,0,.52-.78l.07-.13a7.19,7.19,0,0,0,.39-.9l0-.1a6.72,6.72,0,0,0,.23-1h0c0-.21,0-.41.05-.62a5.81,5.81,0,0,0-.22-1.77A5.72,5.72,0,0,0,18,16.06Zm-2.16,3.6a3,3,0,0,1-2.95,2.59l-.4,0a3,3,0,0,1-2.57-3.35,3,3,0,0,1,2.95-2.59,2.55,2.55,0,0,1,.39,0,3,3,0,0,1,2.58,3.35Z"/><path class="cls-1" d="M89.55.45A1.5,1.5,0,0,0,88.48,0H48.2a1.53,1.53,0,0,0-1.08.45,1.51,1.51,0,0,0-.45,1.08V5.88A37.26,37.26,0,0,0,35.4,14.4l-6,6.6-3.51-1.6A13,13,0,0,0,14.76,6.13,12,12,0,0,0,13.07,6a13,13,0,0,0-1.9,25.8,11.76,11.76,0,0,0,1.68.12,12.87,12.87,0,0,0,7-2l2.28,1-1.2,2.43a13,13,0,1,0,11.4,21.52,13,13,0,0,0,0-17.33L34.08,34l9.05,1.27c1.17.16,2.36.25,3.54.3V51.45a1.53,1.53,0,0,0,.37,1l4,4.68a1.54,1.54,0,0,0,1.15.53h0a1.51,1.51,0,0,0,1.16-.53l2.86-3.31,2.86,3.31a1.74,1.74,0,0,0,1.16.53,1.53,1.53,0,0,0,1.16-.53l2.86-3.31,2.86,3.31a1.52,1.52,0,0,0,2.31,0l2.87-3.31,2.87,3.31a1.64,1.64,0,0,0,1.16.53,1.53,1.53,0,0,0,1.15-.52l2.88-3.32,2.88,3.32a1.45,1.45,0,0,0,1.16.53,1.58,1.58,0,0,0,1.15-.53l4.05-4.68a1.53,1.53,0,0,0,.37-1V1.54A1.54,1.54,0,0,0,89.55.45Zm-51.88,16a34.48,34.48,0,0,1,9-7.12v5.39l-7.42,8.21h0L32.65,22Zm9,2.83V24l-3.76-.53ZM32.59,46.67a9.93,9.93,0,0,1-1.35,4.58c-.17.28-.35.56-.55.83a9.46,9.46,0,0,1-.64.78c-.24.27-.49.51-.75.75l-.27.22c-.18.14-.35.29-.54.42l-.34.23-.51.33-.39.2-.51.25-.41.17-.52.19-.43.13-.53.13-.44.09-.54.08-.44,0-.56,0h-.46l-.4,0-.51-.05L21.1,56l-.51-.1a2.74,2.74,0,0,1-.39-.09,4.91,4.91,0,0,1-.51-.15l-.38-.12-.5-.21-.36-.15c-.17-.08-.34-.18-.51-.27l-.33-.18-.53-.35-.26-.18a8.94,8.94,0,0,1-.76-.62,9.87,9.87,0,0,1-1.35-1.48,10,10,0,0,1-1.35-2.57,9.87,9.87,0,0,1,2-9.93,9.57,9.57,0,0,1,.78-.78l.23-.18c.2-.17.4-.34.61-.49l.33-.2c.19-.13.37-.25.57-.36s.25-.12.38-.19.37-.19.56-.27l.41-.15.57-.21.44-.11c.18,0,.37-.1.56-.13l.45-.07.57-.08.46,0,.52,0h.09l1.28-2.58.76-1.55,1.2.53a3.26,3.26,0,0,0,.81.23l4,.55h0l-.46,1-1.83,3.82.36.29.36.3A9.86,9.86,0,0,1,32.59,46.67ZM48,32.53l-.37,0c-.49,0-1,0-1.45-.06l-.63,0c-.68,0-1.35-.12-2-.21h0L36,31.13l-.51-.07-8.1-1.13-2.63-1.17-1.25-.55-4-1.77a8.73,8.73,0,0,1-.77.59l-.25.17c-.19.12-.37.24-.57.35l-.31.18L17,28l-.34.15-.59.21-.34.11c-.22.07-.45.12-.68.17a2.3,2.3,0,0,1-.28.06c-.32.06-.65.11-1,.14h-.11a7,7,0,0,1-.79,0h-.09c-.39,0-.79,0-1.19-.09h0a10.3,10.3,0,0,1-1.95-.48,9.69,9.69,0,0,1-1.31-.59,9.92,9.92,0,0,1-4.27-4.4,9.77,9.77,0,0,1-.9-5.71,7.4,7.4,0,0,1,.18-1l.09-.31c0-.2.11-.41.18-.61s.09-.23.14-.35.13-.35.21-.53l.18-.35c.08-.16.16-.32.25-.48l.21-.34c.1-.15.19-.29.3-.44s.16-.21.24-.32.21-.27.33-.4a3.65,3.65,0,0,1,.27-.3c.11-.13.24-.25.36-.37l.29-.27c.13-.12.27-.23.41-.34L7.1,11l.45-.3.31-.2.51-.28.3-.16.64-.28.2-.08a9.06,9.06,0,0,1,.88-.29l.24-.05.67-.14.35-.05c.2,0,.39-.05.59-.06l.39,0c.14,0,.28,0,.41,0h.12c.39,0,.78,0,1.18.09h0a10,10,0,0,1,3.71,1.31,9.41,9.41,0,0,1,2.21,1.81,10,10,0,0,1,1.15,1.51,10.25,10.25,0,0,1,1.13,2.63,10,10,0,0,1,.32,2.91,8.61,8.61,0,0,1-.09,1,9.12,9.12,0,0,1-.17.91L26.45,23l3.85,1.75L64.13,29.5h0l-.79.22-2.54.69-3.33.91c-.7.18-1.39.34-2.09.49l-.61.11c-.53.1-1.07.19-1.6.27l-.58.08c-.7.08-1.41.15-2.11.2h-.31c-.61,0-1.22,0-1.84,0ZM86.93,50.89,84.41,53.8l-2.88-3.32A1.54,1.54,0,0,0,80.39,50h0a1.51,1.51,0,0,0-1.16.53L76.35,53.8l-2.87-3.32A1.38,1.38,0,0,0,72.33,50a1.51,1.51,0,0,0-1.16.53L68.3,53.79l-2.87-3.31A1.48,1.48,0,0,0,64.28,50a1.51,1.51,0,0,0-1.16.53l-2.86,3.31-2.87-3.31A1.45,1.45,0,0,0,56.23,50a1.51,1.51,0,0,0-1.15.53l-2.85,3.31-2.5-2.91V35.55a38,38,0,0,0,8.54-1.28l6.66-1.82A3,3,0,0,0,67,30.55l.52,0v2.08h2.1V30.59a8.08,8.08,0,0,0,2.44-.43A6.43,6.43,0,0,0,74.15,29a5.75,5.75,0,0,0,1.48-1.92,6.23,6.23,0,0,0,.56-2.72,5,5,0,0,0-.6-2.56,5.72,5.72,0,0,0-1.54-1.74A8,8,0,0,0,72,18.92c-.76-.29-1.51-.54-2.25-.77V13.6a5.57,5.57,0,0,1,1.91.43,4.94,4.94,0,0,1,1.7,1.1c.91-1,1.83-2,2.76-3.1a8.75,8.75,0,0,0-3-1.59,13.37,13.37,0,0,0-3.33-.57V7.93H67.65v2a7.67,7.67,0,0,0-2.25.47,6.8,6.8,0,0,0-2.05,1.16,6.11,6.11,0,0,0-1.48,1.85,5.31,5.31,0,0,0-.57,2.49,4.91,4.91,0,0,0,1.88,4.07,7.05,7.05,0,0,0,2,1.11c.75.29,1.53.54,2.35.77v5a3.83,3.83,0,0,1-1-.15,6.87,6.87,0,0,1-1.08-.42,7,7,0,0,1-1.05-.61,4.8,4.8,0,0,1-.88-.78l-1.24,1.31L49.73,24.4V3.06H86.94ZM67.65,17.67A3.34,3.34,0,0,1,66.2,17a1.79,1.79,0,0,1-.54-1.4,1.76,1.76,0,0,1,.61-1.44,2.65,2.65,0,0,1,1.38-.58Zm2,9.16V22.34a4.25,4.25,0,0,1,1.5.78,1.84,1.84,0,0,1,.58,1.49,2,2,0,0,1-2.08,2.22Z"/><path class="cls-1" d="M29.64,26.89a1.55,1.55,0,1,0,2.19-.13A1.55,1.55,0,0,0,29.64,26.89Z"/></g></g></svg>