<svg xmlns="http://www.w3.org/2000/svg" viewBox="0 0 90 82.46"><defs><style>.cls-1{fill:#1d76ad;}</style></defs><title>property_community</title><g id="Layer_2" data-name="Layer 2"><g id="Layer_1-2" data-name="Layer 1"><path class="cls-1" d="M74.56,8.67a17.89,17.89,0,0,0-13.29,2.72C57.78,4.57,51.46,0,44.27,0,36.51,0,29.78,5.32,26.5,13a17.37,17.37,0,0,0-9.71-1.54C5.93,13-1.49,24.68.25,37.6,1.78,48.88,9.8,57.41,19,58.42a8.07,8.07,0,0,1-2.29,1.44,1.42,1.42,0,0,0-.91,1.19,1.46,1.46,0,0,0,.62,1.36c.5.34,4.26,2.81,7.5,2.81a4.85,4.85,0,0,0,1.87-.34,1.44,1.44,0,0,0,.89-1.34v-3.8a5.68,5.68,0,0,1,.67.8,3.27,3.27,0,0,1,.52,3.09,5.66,5.66,0,0,1-1.16,1.48A5.75,5.75,0,0,0,25,67.77a4.23,4.23,0,0,0,1.45,4,6.16,6.16,0,0,0,2,1.09,7,7,0,0,1,1.16.51,3.5,3.5,0,0,1,1.76,3,3.31,3.31,0,0,1-1.32,2.7,1,1,0,0,0,.51,1.79.91.91,0,0,0,.5-.15,5.12,5.12,0,0,0,2.24-4.33,5.43,5.43,0,0,0-2.66-4.68,7.71,7.71,0,0,0-1.5-.69,4.61,4.61,0,0,1-1.42-.72,2.38,2.38,0,0,1-.85-2.12,4.17,4.17,0,0,1,1.24-1.76,7.37,7.37,0,0,0,1.53-2,5.2,5.2,0,0,0-.7-5,10.08,10.08,0,0,0-2-2.06A20,20,0,0,0,38,46.06a16.66,16.66,0,0,0,3.67,1,10,10,0,0,1-2.17,4,1.45,1.45,0,0,0,.85,2.42,23.27,23.27,0,0,0,3.35.24,14.73,14.73,0,0,0,4.65-.66,2.19,2.19,0,0,1-.21.34c-.35.38-.78.8-1.23,1.24a18.58,18.58,0,0,0-2.81,3.19,4.21,4.21,0,0,0,.13,4.25,6.17,6.17,0,0,0,1.59,1.66,6.54,6.54,0,0,1,.94.85c1.84,2.23,1.05,3.13-1.67,5.63a9,9,0,0,0-3.19,5.93,7.79,7.79,0,0,0,2.77,6,1,1,0,0,0,.67.27A1,1,0,0,0,46,80.79a6,6,0,0,1-2.18-4.49,7.18,7.18,0,0,1,2.52-4.56c2.46-2.26,5-4.59,1.9-8.33A8,8,0,0,0,47,62.28a4.75,4.75,0,0,1-1.12-1.12,2.39,2.39,0,0,1-.15-2.29,17.55,17.55,0,0,1,2.5-2.79c.48-.47.94-.92,1.31-1.32a4.7,4.7,0,0,0,1.14-3c.06-.06.14-.11.2-.18A1.47,1.47,0,0,0,51.1,50l-1.66-3.48a18.58,18.58,0,0,0,3.24-1.41c.06.11.1.23.17.34A18.33,18.33,0,0,0,65,55a8,8,0,0,1-2.38,2.84A1.45,1.45,0,0,0,63,60.36l.62.22A5.12,5.12,0,0,0,63,65.37a7.37,7.37,0,0,0,1.53,2,4.15,4.15,0,0,1,1.24,1.75,2.37,2.37,0,0,1-.86,2.13,4.43,4.43,0,0,1-1.41.71,7.77,7.77,0,0,0-1.5.7,5.46,5.46,0,0,0-2.67,4.67,5.16,5.16,0,0,0,2.24,4.34,1,1,0,0,0,1.33-.31,1,1,0,0,0-.31-1.33,3.29,3.29,0,0,1-1.32-2.71,3.5,3.5,0,0,1,1.76-3,7,7,0,0,1,1.16-.52,6,6,0,0,0,2-1.08,4.23,4.23,0,0,0,1.45-4,5.84,5.84,0,0,0-1.74-2.66,5.83,5.83,0,0,1-1.15-1.48,3.29,3.29,0,0,1,.52-3.1,4.47,4.47,0,0,1,.29-.35,13.58,13.58,0,0,0,2.92.35A5.93,5.93,0,0,0,72,60.54,1.45,1.45,0,0,0,72.56,59l-1-3.92C80,53.62,87.42,46,89.46,35.73,92,22.94,85.31,10.8,74.56,8.67ZM23.82,62.33a9.88,9.88,0,0,1-3.62-1.12,13,13,0,0,0,2.52-2.49l1.09-.47h0Zm-1.08-6.84c-9.29,1.25-18.08-7-19.61-18.28S7.9,15.63,17.18,14.38a13.3,13.3,0,0,1,1.88-.13c8.56,0,16.3,7.84,17.73,18.41C38.32,44,32,54.23,22.74,55.49ZM43.2,50.85a14.28,14.28,0,0,0,1.38-3.57,15.7,15.7,0,0,0,2-.15l1.44,3A11.35,11.35,0,0,1,43.2,50.85Zm8.3-8.46a14.37,14.37,0,0,1-7.23,2,14.13,14.13,0,0,1-5.36-1.08,27,27,0,0,0,.75-11,25.24,25.24,0,0,0-10.6-17.79C31.84,7.63,37.6,2.9,44.27,2.9,50.5,2.9,56,7,58.9,13.17A26,26,0,0,0,50.45,28,26.68,26.68,0,0,0,51.5,42.39Zm18,16.11a9.41,9.41,0,0,1-3.14-.2,12.32,12.32,0,0,0,1.6-2.63l.41-.31.32,0h0ZM86.62,35.16C84.39,46.38,75.11,54,65.93,52.21A15.48,15.48,0,0,1,55.4,44a23,23,0,0,1-2.1-15.47,23.08,23.08,0,0,1,7.84-13.5,16,16,0,0,1,10.11-3.82,14.14,14.14,0,0,1,2.74.27C83.18,13.33,88.84,23.94,86.62,35.16Z"/></g></g></svg>