<svg xmlns="http://www.w3.org/2000/svg" viewBox="0 0 67.13 90.62"><defs><style>.cls-1{fill:#1d76ad;}</style></defs><title>property_ribbon</title><g id="Layer_2" data-name="Layer 2"><g id="Layer_1-2" data-name="Layer 1"><path class="cls-1" d="M59.4,52.88l4.43-3.22a8,8,0,0,0,2.91-8.95L65.05,35.5a1.88,1.88,0,0,1,0-1.24l1.69-5.21a8,8,0,0,0-2.91-8.95L59.4,16.88a2,2,0,0,1-.73-1L57,10.66a8,8,0,0,0-7.61-5.53H43.88a2,2,0,0,1-1.17-.38L38.27,1.53a8,8,0,0,0-9.4,0L24.43,4.75a2,2,0,0,1-1.18.38H17.77a8,8,0,0,0-7.61,5.53l-1.7,5.22a2,2,0,0,1-.72,1L3.3,20.1a8,8,0,0,0-2.91,9l1.7,5.21a2,2,0,0,1,0,1.24L.39,40.71A8,8,0,0,0,3.3,49.66l4.44,3.22a2,2,0,0,1,.72,1l.64,2L.71,75a6,6,0,0,0,5.48,8.41,7,7,0,0,0,.79,0l6.44-.84,4.12,5.61a5.93,5.93,0,0,0,4.83,2.46A6,6,0,0,0,27.88,87l5.69-13,5.69,13a6,6,0,0,0,10.33,1.14l4.12-5.61,6.44.84a7.13,7.13,0,0,0,.79,0A6,6,0,0,0,66.43,75L58,55.84l.64-2A2,2,0,0,1,59.4,52.88ZM31.93,70.26l-6.8,15.56a3.62,3.62,0,0,1-.4.66l-.06.07a2.77,2.77,0,0,1-.5.47l-.09.07a3.32,3.32,0,0,1-.59.31l-.11,0a2.84,2.84,0,0,1-.64.15h-.09l-.28,0a2,2,0,0,1-.24,0l-.29,0a3.31,3.31,0,0,1-.42-.12,2.14,2.14,0,0,1-.27-.09,2.73,2.73,0,0,1-.43-.26,1.48,1.48,0,0,1-.21-.13,3,3,0,0,1-.55-.57h0l-1.37-1.87-2.75-3.75h0a2.71,2.71,0,0,0-.53-.54l-.2-.14a3.7,3.7,0,0,0-.43-.25,1.48,1.48,0,0,0-.27-.1,3.33,3.33,0,0,0-.45-.13l-.3,0a2,2,0,0,0-.24,0l-.39,0-6.44.84a2.83,2.83,0,0,1-.41,0,3.19,3.19,0,0,1-.7-.09l-.07,0a3,3,0,0,1-.61-.24l-.08,0a3,3,0,0,1-.51-.37l-.07-.06a3.72,3.72,0,0,1-.41-.48.22.22,0,0,0,0-.08,3.25,3.25,0,0,1-.28-.56l0-.09a3.22,3.22,0,0,1-.15-.63v-.08a3.1,3.1,0,0,1,0-.68l0-.05a2.8,2.8,0,0,1,.21-.72L10.54,60a8,8,0,0,0,7.23,4.6h5.48a2,2,0,0,1,1.18.38l4.44,3.22a7.93,7.93,0,0,0,3.33,1.41Zm31.75,6a3.27,3.27,0,0,1,.21.72s0,0,0,.05a3.11,3.11,0,0,1,0,.68.22.22,0,0,1,0,.08,2.62,2.62,0,0,1-.14.63l0,.09a4.18,4.18,0,0,1-.28.56l-.06.08a3.64,3.64,0,0,1-.4.48l-.08.06a2.38,2.38,0,0,1-.51.37l-.07,0a3.51,3.51,0,0,1-.61.24l-.07,0a3.29,3.29,0,0,1-.71.09l-.41,0-6.44-.84-.39,0a2,2,0,0,0-.24,0l-.3,0a3.19,3.19,0,0,0-.44.13,1.48,1.48,0,0,0-.27.1,3.7,3.7,0,0,0-.43.25l-.21.14a3,3,0,0,0-.52.54h0l-2.74,3.75-1.37,1.87h0a2.94,2.94,0,0,1-.54.57l-.21.13a2.73,2.73,0,0,1-.43.26c-.09,0-.18.06-.27.09a3,3,0,0,1-.43.12l-.29,0a2,2,0,0,1-.24,0l-.28,0H44.4a2.92,2.92,0,0,1-.65-.15l-.1,0a3,3,0,0,1-.59-.31L43,87a2.52,2.52,0,0,1-.51-.47l-.05-.07a2.77,2.77,0,0,1-.4-.66L35.2,70.26l.34-.77a8.08,8.08,0,0,0,2.73-1.26L42.71,65a2,2,0,0,1,1.17-.38h5.49A8,8,0,0,0,56.59,60Zm-6-25.79A4.88,4.88,0,0,0,57,51a4.07,4.07,0,0,0-.51.59A4.81,4.81,0,0,0,55.82,53l-1.13,3.48-.57,1.74a4.7,4.7,0,0,1-.72,1.41,5,5,0,0,1-4,2.05H43.88a5,5,0,0,0-2.27.54,6.68,6.68,0,0,0-.67.41L38,64.73l-.54.39-.94.68a5,5,0,0,1-2.94,1,5,5,0,0,1-2.94-1l-4.44-3.22a5.72,5.72,0,0,0-.67-.41,5,5,0,0,0-2.27-.54H17.77a5,5,0,0,1-2.28-.55A5,5,0,0,1,13,58.17l-.56-1.74L11.32,53a5.37,5.37,0,0,0-.71-1.39A5.47,5.47,0,0,0,9.5,50.45l-3-2.14L5.06,47.23a5,5,0,0,1-2-3.44,5.85,5.85,0,0,1,0-.59,5,5,0,0,1,.25-1.56l1.69-5.22a4.78,4.78,0,0,0,.25-1.54s0,0,0-.06a4.79,4.79,0,0,0-.24-1.49L3.25,28.12a4.43,4.43,0,0,1-.19-.78,4.8,4.8,0,0,1,0-1.56,4.92,4.92,0,0,1,2-3.25L9.5,19.3a5,5,0,0,0,1.11-1.1,5.72,5.72,0,0,0,.41-.67,4.3,4.3,0,0,0,.3-.73L13,11.59a5.21,5.21,0,0,1,.72-1.41,5,5,0,0,1,4-2h5.48a5,5,0,0,0,2.27-.54,5.72,5.72,0,0,0,.67-.41l2.22-1.61L30.63,4a5,5,0,0,1,5.88,0l2.21,1.62,2.22,1.61a6.68,6.68,0,0,0,.67.41,5,5,0,0,0,2.27.54h5.49a5,5,0,0,1,4,2,4.7,4.7,0,0,1,.72,1.41l1.7,5.21a4.3,4.3,0,0,0,.3.73,4.62,4.62,0,0,0,.41.67,5,5,0,0,0,1.1,1.1l4.44,3.23a5,5,0,0,1,1.52,1.78,4.79,4.79,0,0,1,.48,1.47,5.1,5.1,0,0,1,0,1.56,5.49,5.49,0,0,1-.18.78L63,30.73l-.85,2.6A5.12,5.12,0,0,0,62,35.66a4.94,4.94,0,0,0,.18.76l1.7,5.22a5.28,5.28,0,0,1,.24,1.56,5.83,5.83,0,0,1,0,.59,5,5,0,0,1-2,3.44l-1.48,1.08Z"/><path class="cls-1" d="M33.57,13.11A21.77,21.77,0,1,0,55.34,34.88,21.8,21.8,0,0,0,33.57,13.11Zm0,41.54A19.77,19.77,0,1,1,53.34,34.88,19.78,19.78,0,0,1,33.57,54.65Z"/></g></g></svg>