<svg xmlns="http://www.w3.org/2000/svg" viewBox="0 0 90 41.35"><defs><style>.cls-1{fill:none;}.cls-2{fill:#1d76ad;}</style></defs><title>property_rating</title><g id="Layer_2" data-name="Layer 2"><g id="Layer_1-2" data-name="Layer 1"><path class="cls-1" d="M72.75,39.76a1.14,1.14,0,0,1-.23-.15A1.14,1.14,0,0,0,72.75,39.76Z"/><path class="cls-1" d="M73.16,39.85h0a1.34,1.34,0,0,1-.35-.05A1.26,1.26,0,0,0,73.16,39.85Z"/><path class="cls-1" d="M72.44,39.55a1,1,0,0,1-.21-.31A1,1,0,0,0,72.44,39.55Z"/><path class="cls-1" d="M63.93,37.39h0Z"/><path class="cls-1" d="M64.58,37.37l-.09,0Z"/><path class="cls-1" d="M79,30.55l.15,0-.17,0Z"/><path class="cls-1" d="M64.23,37.45h0Z"/><path class="cls-1" d="M79.47,30.44l-.14.07Z"/><path class="cls-1" d="M79.93,29.24a1.06,1.06,0,0,1,.06.19A1.06,1.06,0,0,0,79.93,29.24Z"/><path class="cls-1" d="M63.64,37.22a.34.34,0,0,1-.06-.06A.34.34,0,0,0,63.64,37.22Z"/><path class="cls-1" d="M80,29.53a1,1,0,0,1,0,.17A1,1,0,0,0,80,29.53Z"/><path class="cls-1" d="M79.69,30.28a.36.36,0,0,1-.11.1A.36.36,0,0,0,79.69,30.28Z"/><path class="cls-1" d="M79.86,30.07a.46.46,0,0,1-.08.13A.46.46,0,0,0,79.86,30.07Z"/><path class="cls-1" d="M80,29.81a.88.88,0,0,1,0,.15A.88.88,0,0,0,80,29.81Z"/><polygon class="cls-1" points="64.84 37.19 64.85 37.19 67.57 34.48 64.85 37.19 64.84 37.19"/><path class="cls-1" d="M63.44,37s0,0,0-.08S63.43,36.94,63.44,37Z"/><path class="cls-1" d="M79.9,29.16a.83.83,0,0,0-.18-.25A.83.83,0,0,1,79.9,29.16Z"/><path class="cls-2" d="M63.91,13.86h0Z"/><path class="cls-2" d="M64.28,13.78h0Z"/><path class="cls-2" d="M63.56,14.1l.07-.07Z"/><path class="cls-2" d="M63.37,14.4l0-.09Z"/><polygon class="cls-2" points="63.29 14.77 63.29 14.77 63.29 14.77 63.29 14.77"/><path class="cls-2" d="M64.57,13.84l.1,0Z"/><path class="cls-2" d="M89.88,7.14a.41.41,0,0,0-.23-.69L84,5.62a.4.4,0,0,1-.31-.22L81.09.23A.42.42,0,0,0,80.72,0a.4.4,0,0,0-.36.23L77.81,5.4a.42.42,0,0,1-.31.22l-5.71.83h0l-5.71-.83a.4.4,0,0,1-.3-.22L63.23.23a.4.4,0,0,0-.73,0L60,5.4a.42.42,0,0,1-.31.22l-5.71.83h0l-5.71-.83a.4.4,0,0,1-.3-.22L45.36.23a.39.39,0,0,0-.72,0L42.08,5.4a.4.4,0,0,1-.3.22l-5.71.83h0l-5.71-.83a.42.42,0,0,1-.31-.22L27.5.23a.4.4,0,0,0-.73,0L24.22,5.4a.4.4,0,0,1-.3.22l-5.71.83h0L12.5,5.62a.42.42,0,0,1-.31-.22L9.64.23a.4.4,0,0,0-.73,0L6.36,5.4a.4.4,0,0,1-.31.22l-5.7.83a.41.41,0,0,0-.23.69l4.13,4a.39.39,0,0,1,.12.36l-1,5.68a.41.41,0,0,0,.59.43L9.09,15a.42.42,0,0,1,.38,0l5.1,2.69a.41.41,0,0,0,.59-.43l-1-5.68a.42.42,0,0,1,.12-.36l3.91-3.81,3.9,3.81a.39.39,0,0,1,.12.36l-1,5.68a.41.41,0,0,0,.59.43L27,15a.42.42,0,0,1,.38,0l5.1,2.69a.41.41,0,0,0,.59-.43l-1-5.68a.39.39,0,0,1,.11-.36l3.91-3.81L40,11.17a.39.39,0,0,1,.11.36l-1,5.68a.41.41,0,0,0,.59.43L44.81,15a.42.42,0,0,1,.38,0l5.1,2.69a.41.41,0,0,0,.59-.43l-1-5.68a.39.39,0,0,1,.11-.36l3.91-3.81,3.91,3.81a.39.39,0,0,1,.11.36l-1,5.68a.41.41,0,0,0,.59.43L60.3,16.2l0,18.87A3.89,3.89,0,0,0,67,37.82l1.42-1.41,1.09,2.52a4,4,0,0,0,5.43,2l2.27-1.1a4,4,0,0,0,2-5.15L78,32l.92,0H79a4,4,0,0,0,2.81-6.76l-14-14.07a.1.1,0,0,1,0-.05l3.9-3.81,3.91,3.81a.42.42,0,0,1,.12.36l-1,5.68a.41.41,0,0,0,.4.48.45.45,0,0,0,.19-.05L80.53,15a.43.43,0,0,1,.19,0,.41.41,0,0,1,.19,0L86,17.64a.41.41,0,0,0,.19.05.42.42,0,0,0,.4-.48l-1-5.68a.39.39,0,0,1,.12-.36ZM79.72,27.41a.83.83,0,0,1,.18.25s0,.05,0,.08a1.06,1.06,0,0,1,.06.19.34.34,0,0,1,0,.1,1,1,0,0,1,0,.17l0,.11a.88.88,0,0,1,0,.15.6.6,0,0,1-.06.11.46.46,0,0,1-.08.13.73.73,0,0,1-.09.08.36.36,0,0,1-.11.1.39.39,0,0,1-.11.06l-.14.07-.14,0-.15,0h0l-5.54-.14,2.89,7a1,1,0,0,1-.19,1.07,1,1,0,0,1-.31.23L73.6,38.25a.92.92,0,0,1-.42.1h0a1,1,0,0,1-.33-.06s0,0-.08,0a1.14,1.14,0,0,1-.23-.15l-.08-.06a1,1,0,0,1-.21-.31l-2.84-6.56L67.57,33l-2.72,2.71h0a.87.87,0,0,1-.26.18l-.09,0-.21,0h-.09a.75.75,0,0,1-.26,0h0a.82.82,0,0,1-.25-.16.34.34,0,0,1-.06-.06,1.33,1.33,0,0,1-.14-.19s0,0,0-.08a.88.88,0,0,1-.07-.33l0-21.79h0a.87.87,0,0,1,.08-.37l0-.09a.8.8,0,0,1,.15-.21l.07-.07a.88.88,0,0,1,.28-.17h0a1,1,0,0,1,.29-.06h.11l.23.05.1,0a1.12,1.12,0,0,1,.3.2ZM84.46,9.84a2.23,2.23,0,0,0-.65,2l.48,2.8-2.52-1.32a2.24,2.24,0,0,0-1-.26,2.3,2.3,0,0,0-1,.26l-2.51,1.32.48-2.8a2.29,2.29,0,0,0-.65-2l-2-2,2.82-.41a2.29,2.29,0,0,0,1.7-1.23l1.25-2.55L82,6.22a2.27,2.27,0,0,0,1.7,1.23l2.81.41Z"/></g></g></svg>