<svg xmlns="http://www.w3.org/2000/svg" viewBox="0 0 67.65 90"><defs><style>.cls-1{fill:#1d76ad;}</style></defs><title>property_unlock</title><g id="Layer_2" data-name="Layer 2"><g id="Layer_1-2" data-name="Layer 1"><path class="cls-1" d="M62.59,42.61H25.48V22.31a8.34,8.34,0,1,1,16.68,0v15.1A1.54,1.54,0,0,0,43.71,39h7.71a1.56,1.56,0,0,0,1.33-.76,22,22,0,0,0,3-11V21.91a21.92,21.92,0,0,0-43.83,0v20.7H5.06A5.07,5.07,0,0,0,0,47.67V84.94A5.07,5.07,0,0,0,5.06,90H62.59a5.07,5.07,0,0,0,5.06-5.06V47.67A5.07,5.07,0,0,0,62.59,42.61ZM15,21.91a18.83,18.83,0,0,1,37.66,0v5.24a18.86,18.86,0,0,1-2.14,8.72H45.25V22.31a11.43,11.43,0,1,0-22.85,0v20.3H15Zm49.58,63a2,2,0,0,1-2,2H5.06a2,2,0,0,1-2-2V47.67a2,2,0,0,1,2-2H62.59a2,2,0,0,1,2,2Z"/><path class="cls-1" d="M54.29,53.88H13.36a1,1,0,1,0,0,2.06H54.29a1,1,0,1,0,0-2.06Z"/><path class="cls-1" d="M54.29,76.67H13.36a1,1,0,1,0,0,2.06H54.29a1,1,0,1,0,0-2.06Z"/><path class="cls-1" d="M54.29,65.28H13.36a1,1,0,1,0,0,2H54.29a1,1,0,1,0,0-2Z"/></g></g></svg>