<svg xmlns="http://www.w3.org/2000/svg" viewBox="0 0 90 72.4"><defs><style>.cls-1{fill:#1d76ad;}</style></defs><title>property_whitelabel</title><g id="Layer_2" data-name="Layer 2"><g id="Layer_1-2" data-name="Layer 1"><path class="cls-1" d="M85.59,0H4.41A4.42,4.42,0,0,0,0,4.41V68A4.42,4.42,0,0,0,4.41,72.4H85.59A4.42,4.42,0,0,0,90,68V4.41A4.42,4.42,0,0,0,85.59,0ZM3,4.41A1.39,1.39,0,0,1,4.41,3H85.59A1.39,1.39,0,0,1,87,4.41v7H3ZM87,68a1.39,1.39,0,0,1-1.39,1.39H4.41A1.39,1.39,0,0,1,3,68V14.38H87Z"/><path class="cls-1" d="M8.23,5.69A1.49,1.49,0,1,0,9.72,7.18,1.49,1.49,0,0,0,8.23,5.69Z"/><path class="cls-1" d="M13.62,5.69a1.49,1.49,0,1,0,1.49,1.49A1.49,1.49,0,0,0,13.62,5.69Z"/><path class="cls-1" d="M19,5.69a1.49,1.49,0,1,0,1.49,1.49A1.49,1.49,0,0,0,19,5.69Z"/><path class="cls-1" d="M42.54,49.71a9.43,9.43,0,0,1-1.44-.55,9,9,0,0,1-1.39-.81,6.32,6.32,0,0,1-1.18-1q-1,1.06-2,2.1l-2,2.06A12.51,12.51,0,0,0,39,54,16.76,16.76,0,0,0,43.9,55v2.76h2.8V55a10.82,10.82,0,0,0,3.24-.57,8.66,8.66,0,0,0,2.79-1.55,7.47,7.47,0,0,0,2-2.55,8.28,8.28,0,0,0,.74-3.61,6.7,6.7,0,0,0-.8-3.41,7.88,7.88,0,0,0-2-2.3,10.55,10.55,0,0,0-2.76-1.51c-1-.38-2-.72-3-1V32.37a7.71,7.71,0,0,1,2.54.57,6.6,6.6,0,0,1,2.26,1.47q1.83-2,3.67-4.12a11.73,11.73,0,0,0-4-2.11,17.3,17.3,0,0,0-4.43-.76V24.85H44.09v2.61a10.5,10.5,0,0,0-3,.62,9.28,9.28,0,0,0-2.72,1.55,7.9,7.9,0,0,0-2,2.46,6.89,6.89,0,0,0,1.74,8.72,9.78,9.78,0,0,0,2.62,1.47q1.5.57,3.12,1v6.62A4.85,4.85,0,0,1,42.54,49.71ZM46.7,44a5.76,5.76,0,0,1,2,1,2.5,2.5,0,0,1,.77,2,2.73,2.73,0,0,1-2.76,3Zm-4.54-7.14A2.36,2.36,0,0,1,41.45,35a2.33,2.33,0,0,1,.81-1.91,3.4,3.4,0,0,1,1.83-.77v5.48A4.53,4.53,0,0,1,42.16,36.84Z"/><path class="cls-1" d="M27.29,56.22H26.12a1.84,1.84,0,0,1-1.84-1.83V46.78a5.86,5.86,0,0,0-2.58-4.86,5.86,5.86,0,0,0,2.58-4.86V29.45a1.84,1.84,0,0,1,1.84-1.83h1.17a1,1,0,1,0,0-2H26.12a3.86,3.86,0,0,0-3.85,3.85v7.61A3.86,3.86,0,0,1,19,40.86a2.76,2.76,0,0,1-.51,0H18.4a1,1,0,0,0-1,1h0a1,1,0,0,0,1,1h.11A2.76,2.76,0,0,1,19,43a3.87,3.87,0,0,1,3.25,3.8v7.61a3.86,3.86,0,0,0,3.85,3.85h1.17a1,1,0,1,0,0-2Z"/><path class="cls-1" d="M72.86,40.91h-.11a2.94,2.94,0,0,1-.51,0A3.86,3.86,0,0,1,69,37.06V29.45a3.85,3.85,0,0,0-3.84-3.85H64a1,1,0,0,0,0,2h1.18A1.83,1.83,0,0,1,67,29.45v7.61a5.86,5.86,0,0,0,2.58,4.86A5.86,5.86,0,0,0,67,46.78v7.61a1.83,1.83,0,0,1-1.83,1.83H64a1,1,0,0,0,0,2h1.18A3.85,3.85,0,0,0,69,54.39V46.78A3.87,3.87,0,0,1,72.24,43a2.94,2.94,0,0,1,.51,0h.11a1,1,0,0,0,1-1h0A1,1,0,0,0,72.86,40.91Z"/></g></g></svg>