<svg xmlns="http://www.w3.org/2000/svg" viewBox="0 0 90 56.64"><defs><style>.cls-1{fill:#1d76ad;}</style></defs><title>property_spam</title><g id="Layer_2" data-name="Layer 2"><g id="Layer_1-2" data-name="Layer 1"><path class="cls-1" d="M88.48,45.35H84.59V1.52A1.52,1.52,0,0,0,83.07,0H6.93A1.52,1.52,0,0,0,5.41,1.52V45.35H1.52A1.52,1.52,0,0,0,0,46.87v5.65a4.13,4.13,0,0,0,4.13,4.12H85.87A4.13,4.13,0,0,0,90,52.52V46.87A1.52,1.52,0,0,0,88.48,45.35ZM8.46,3H81.54V45.35H8.46ZM87,52.52a1.09,1.09,0,0,1-1.09,1.08H4.13A1.09,1.09,0,0,1,3,52.52V48.4H87Z"/><path class="cls-1" d="M61.4,11.29H28.6A2.75,2.75,0,0,0,25.85,14v22A2.75,2.75,0,0,0,28.6,38.8H61.4a2.75,2.75,0,0,0,2.75-2.75V14A2.75,2.75,0,0,0,61.4,11.29Zm-.75,2L46.21,27.44a1.73,1.73,0,0,1-2.42,0L29.35,13.32ZM29,36.77l7.63-8.89a1,1,0,1,0-1.54-1.33L27.88,35V14.72L42.37,28.89a3.77,3.77,0,0,0,5.26,0L62.12,14.72V35l-7.25-8.46a1,1,0,1,0-1.54,1.33L61,36.77Z"/></g></g></svg>