<svg xmlns="http://www.w3.org/2000/svg" viewBox="0 0 87.94 77.35"><defs><style>.cls-1{fill:#1d76ad;}</style></defs><title>property_money</title><g id="Layer_2" data-name="Layer 2"><g id="Layer_1-2" data-name="Layer 1"><path class="cls-1" d="M48.18,17.19a.5.5,0,0,0-.66.25L38.69,37a1.49,1.49,0,0,0-.31-.2L20.69,28.43a1.5,1.5,0,1,0-1.28,2.71L37.1,39.46a1.46,1.46,0,0,0,.64.15,1.51,1.51,0,0,0,1.36-.87,1.76,1.76,0,0,0,.14-.58l9.19-20.31A.51.51,0,0,0,48.18,17.19Z"/><path class="cls-1" d="M87.5,30.44A1.5,1.5,0,0,0,86.44,30H76.36a38.54,38.54,0,0,0-9-17.33c-.84-.91-1.71-1.79-2.63-2.62a38.67,38.67,0,0,0-52,0c-.91.83-1.79,1.71-2.62,2.62a38.91,38.91,0,0,0-5.38,7.57,38.72,38.72,0,0,0,0,36.87,38.91,38.91,0,0,0,5.38,7.57c.83.92,1.71,1.79,2.62,2.63a38.71,38.71,0,0,0,38.5,8h0a1.48,1.48,0,0,0,.71.19h0A1.52,1.52,0,0,0,53,74.94l.46-.53h0c1.08-.45,2.14-1,3.18-1.49h0l1.75,2a1.51,1.51,0,0,0,1.14.52h0A1.49,1.49,0,0,0,60.68,75l2.7-3.13L66.08,75a1.49,1.49,0,0,0,1.13.52h0A1.51,1.51,0,0,0,68.35,75l2.7-3.13L73.75,75a1.51,1.51,0,0,0,1.14.52h0A1.49,1.49,0,0,0,76,75l2.71-3.13L81.45,75a1.49,1.49,0,0,0,1.13.52h0A1.51,1.51,0,0,0,83.72,75l3.85-4.47a1.48,1.48,0,0,0,.37-1v-38A1.5,1.5,0,0,0,87.5,30.44ZM38.68,74.35A35.68,35.68,0,1,1,73.28,30H66.74a29.4,29.4,0,1,0-20.2,37V69.5a1.48,1.48,0,0,0,.37,1l2,2.36A35.52,35.52,0,0,1,38.68,74.35Zm7.86-9.46A27.37,27.37,0,1,1,64.63,30H48a1.5,1.5,0,0,0-1.5,1.5ZM84.94,69l-2.36,2.72-2.72-3.13A1.5,1.5,0,0,0,78.73,68h0a1.49,1.49,0,0,0-1.13.52l-2.71,3.12-2.7-3.12A1.51,1.51,0,0,0,71.05,68h0a1.49,1.49,0,0,0-1.13.52l-2.71,3.12-2.7-3.12A1.49,1.49,0,0,0,63.38,68h0a1.51,1.51,0,0,0-1.14.52l-2.7,3.12-2.7-3.12A1.49,1.49,0,0,0,55.71,68h0a1.51,1.51,0,0,0-1.14.52l-2.69,3.12L49.54,69V33h35.4Z"/><path class="cls-1" d="M65.48,56.82a6.35,6.35,0,0,1-1-.4,6.8,6.8,0,0,1-1-.58,4.4,4.4,0,0,1-.84-.75c-.47.51-1,1-1.43,1.51l-1.42,1.48a9,9,0,0,0,3.15,1.83,12.15,12.15,0,0,0,3.55.67v2h2v-2a7.91,7.91,0,0,0,2.32-.41,6.17,6.17,0,0,0,2-1.11,5.29,5.29,0,0,0,1.41-1.84,5.79,5.79,0,0,0,.53-2.59,4.79,4.79,0,0,0-.57-2.44,5.81,5.81,0,0,0-1.46-1.66,7.8,7.8,0,0,0-2-1.08c-.72-.27-1.43-.52-2.14-.74V44.37a5.47,5.47,0,0,1,1.82.41A4.89,4.89,0,0,1,72,45.84c.87-1,1.74-2,2.63-3a8.47,8.47,0,0,0-2.9-1.52,12.18,12.18,0,0,0-3.18-.54V39h-2v1.87a7.65,7.65,0,0,0-2.15.45,6.49,6.49,0,0,0-1.95,1.11,5.58,5.58,0,0,0-1.41,1.77,5.11,5.11,0,0,0-.54,2.37,4.61,4.61,0,0,0,1.79,3.89,7,7,0,0,0,1.88,1c.72.28,1.46.52,2.24.74V57A3.48,3.48,0,0,1,65.48,56.82Zm3-4.11a4.1,4.1,0,0,1,1.43.74,1.78,1.78,0,0,1,.55,1.43,2,2,0,0,1-2,2.11ZM65.2,47.58a1.72,1.72,0,0,1-.51-1.33,1.68,1.68,0,0,1,.58-1.38,2.5,2.5,0,0,1,1.32-.55v3.93A3.28,3.28,0,0,1,65.2,47.58Z"/></g></g></svg>